<svg width="19" height="20" viewBox="0 0 19 20" fill="none" xmlns="http://www.w3.org/2000/svg">
<path d="M13.9014 5.00394L15.2283 4.62702L15.8429 3.06245L13.2753 0.494873C12.6154 -0.165049 11.5462 -0.164775 10.8868 0.4946L7.10416 4.27726C6.44424 4.93718 6.44396 6.0064 7.10389 6.66632L8.67854 8.24097L0.207129 16.7123C-0.0691992 16.9886 -0.0688867 17.4365 0.207129 17.7125L0.69998 18.2053L9.8267 9.91679L12.0815 6.82386C11.5822 6.32069 11.583 5.50851 12.0846 5.00698C12.586 4.5055 13.3982 4.50468 13.9014 5.00394Z" fill="#FFE67A"/>
<path d="M18.4105 5.63008L15.8429 3.0625L13.9014 5.00398L13.9048 5.00734C14.4071 5.50969 14.4074 6.32469 13.9048 6.8273C13.4022 7.32992 12.5872 7.32965 12.0849 6.8273L12.0815 6.82395L0.699982 18.2054L1.19283 18.6983C1.46889 18.9743 1.91647 18.9743 2.19276 18.698L2.96025 17.9305L4.8794 19.8496C5.07998 20.0502 5.40576 20.0502 5.60666 19.8494L7.77861 17.6774C7.97951 17.4765 7.97951 17.1508 7.77889 16.9502L5.85975 15.031L10.6641 10.2266L12.239 11.8015C12.899 12.4614 13.9682 12.4612 14.6281 11.8012L18.4108 8.01859C19.0701 7.35922 19.0704 6.29 18.4105 5.63008Z" fill="#FFC336"/>
</svg>
